<?xml version="1.0" encoding="UTF-8" standalone="no"?>
<!DOCTYPE svg PUBLIC "-//W3C//DTD SVG 1.1//EN" "http://www.w3.org/Graphics/SVG/1.1/DTD/svg11.dtd">
<svg width="100%" height="100%" viewBox="0 0 417 417" version="1.1" xmlns="http://www.w3.org/2000/svg" xmlns:xlink="http://www.w3.org/1999/xlink" xml:space="preserve" xmlns:serif="http://www.serif.com/" style="fill-rule:evenodd;clip-rule:evenodd;stroke-linejoin:round;stroke-miterlimit:2;">
    <g transform="matrix(4.166667,0,0,4.166667,0,0)">
        <path d="M80.7,100.1L19.3,100.1C8.4,100.1 -0.5,91.3 -0.5,80.5L-0.5,19.6C-0.5,8.8 8.4,-0.1 19.3,-0.1L80.7,-0.1C91.6,-0.1 100.5,8.8 100.5,19.6L100.5,80.5C100.5,91.3 91.6,100.1 80.7,100.1Z" style="fill:rgb(129,140,248);fill-rule:nonzero;"/>
    </g>
    <g transform="matrix(4.166667,0,0,4.166667,0,0)">
        <path d="M35.5,45.8L35.5,73.5L27.3,73.5L27.3,34.4L12.3,34.4L12.3,26.6L50.4,26.6L50.4,34.4L39,34.4L47.7,57.9L43.8,66.1L35.5,45.8ZM43.8,66.1L60,32.4L60.3,32.4L71,56.4L82.1,26.6L89.6,26.6L71.9,73.6L71.2,73.6L60.1,49L47.2,73.5L46.5,73.5L43.8,66.1Z" style="fill:rgb(15,23,42);"/>
    </g>
</svg>
